<?xml version="1.0" encoding="UTF-8" standalone="no"?>
<!DOCTYPE svg PUBLIC "-//W3C//DTD SVG 1.1//EN" "http://www.w3.org/Graphics/SVG/1.1/DTD/svg11.dtd">
<svg xmlns="http://www.w3.org/2000/svg" version="1.1" viewBox="0.00 0.00 1024.00 1024.00">
<g stroke-width="2.00" fill="none" stroke-linecap="butt">
<path stroke="#8BBF3A" vector-effect="non-scaling-stroke" d="
  M 575.22 370.92
  C 571.66 388.04 568.38 402.31 562.99 415.77
  Q 549.54 449.40 528.73 477.49
  Q 518.29 491.58 501.67 508.43
  Q 495.41 514.77 487.63 521.31
  Q 477.65 529.70 472.81 533.30
  C 456.86 545.17 440.50 555.07 421.63 563.65
  Q 406.49 570.55 394.87 574.58
  Q 384.54 578.16 369.99 581.73
  A 5.28 5.00 -50.4 0 1 368.76 581.88
  L 368.64 581.88
  Q 368.74 581.88 368.75 581.88
  Q 375.08 581.35 380.43 580.41
  Q 424.54 572.68 462.00 550.97
  Q 476.23 542.73 490.02 532.76
  Q 532.31 502.19 559.99 456.99
  Q 570.88 439.21 580.09 415.14
  Q 586.68 397.91 589.85 382.29"
/>
<path stroke="#8BBF3A" vector-effect="non-scaling-stroke" d="
  M 589.85 382.29
  Q 594.39 362.20 595.60 347.02
  C 597.12 327.95 597.97 314.39 602.03 299.62
  Q 606.02 285.09 612.08 273.29
  Q 617.57 262.59 620.99 258.24
  C 634.59 240.97 651.50 225.49 670.83 214.55
  C 681.57 208.48 693.17 203.32 701.54 199.80
  Q 710.54 196.02 716.50 194.50
  C 730.19 190.99 744.52 188.43 759.07 188.52
  A 0.16 0.16 0.0 0 1 759.14 188.82
  Q 757.59 189.59 755.74 190.24
  Q 740.31 195.61 723.46 201.97
  Q 689.72 214.71 662.33 235.33
  Q 635.14 255.80 620.39 285.12
  Q 614.19 297.43 611.36 305.58
  Q 609.78 310.10 609.13 312.83
  A 0.35 0.35 0.0 0 0 609.73 313.14
  Q 614.34 307.70 620.35 301.87
  C 632.89 289.72 648.05 284.42 665.19 284.02
  C 680.35 283.68 696.28 282.81 711.08 279.57
  C 719.90 277.65 729.62 273.98 737.45 270.20
  C 780.09 249.65 801.92 208.03 813.85 165.40
  Q 815.59 159.18 816.63 152.76
  A 1.02 1.02 0.0 0 0 815.28 151.64
  Q 797.12 157.98 777.81 159.44
  Q 756.07 161.08 748.26 161.83
  Q 733.03 163.30 714.23 167.68
  C 685.06 174.48 658.55 189.09 637.49 209.25
  Q 611.38 234.24 597.73 269.64
  C 595.89 274.42 593.90 282.06 591.57 287.85
  A 0.33 0.32 -40.1 0 1 590.95 287.80
  Q 590.26 284.58 586.06 268.66
  Q 584.04 261.01 577.63 245.62
  C 572.76 233.94 563.71 221.58 553.77 212.97
  Q 540.10 201.15 523.01 194.21
  Q 511.01 189.33 494.94 187.36
  Q 481.19 185.67 466.00 185.95
  Q 462.69 186.02 459.51 186.80
  A 0.97 0.97 0.0 0 0 458.78 187.91
  C 461.95 205.65 468.03 223.08 478.65 237.88
  Q 492.01 256.49 514.32 265.51
  Q 535.51 274.08 559.10 275.08
  A 0.89 0.89 0.0 0 0 559.95 273.84
  C 551.39 253.75 536.95 238.94 520.32 225.44
  Q 511.93 218.63 503.66 213.36
  Q 503.04 212.97 502.20 212.00
  A 0.34 0.34 0.0 0 1 502.48 211.44
  Q 506.18 211.61 509.61 212.91
  C 516.29 215.45 522.54 217.99 528.43 221.79
  Q 540.27 229.46 551.69 241.81
  Q 567.58 258.99 573.23 280.41
  Q 578.55 300.56 578.83 322.00
  Q 579.13 344.86 577.55 355.01
  Q 576.30 363.01 575.22 370.92"
/>
<path stroke="#8BBF3A" vector-effect="non-scaling-stroke" d="
  M 589.85 382.29
  Q 581.97 377.31 575.22 370.92"
/>
<path stroke="#0D7377" vector-effect="non-scaling-stroke" d="
  M 298.93 341.24
  Q 294.95 346.69 291.49 352.47
  Q 248.67 424.00 261.83 506.97
  Q 263.15 515.31 265.54 520.95
  C 271.75 535.63 283.71 547.96 297.01 557.44
  A 0.35 0.35 0.0 0 0 297.54 557.03
  Q 294.49 549.62 290.39 538.22
  Q 274.02 492.65 279.82 443.77
  Q 285.72 394.00 314.84 351.79"
/>
<path stroke="#0D7377" vector-effect="non-scaling-stroke" d="
  M 314.84 351.79
  Q 341.09 314.72 380.04 291.08
  Q 388.10 286.19 398.85 281.07
  Q 421.84 270.13 443.26 266.30
  Q 463.03 262.77 480.96 262.08
  A 0.74 0.73 -23.3 0 0 481.46 260.83
  Q 474.38 253.75 468.69 245.80
  C 467.48 244.12 466.59 243.62 464.52 243.80
  Q 447.23 245.34 433.26 248.80
  Q 415.33 253.23 396.98 261.00
  C 358.00 277.49 322.73 306.39 298.93 341.24"
/>
<path stroke="#0D7377" vector-effect="non-scaling-stroke" d="
  M 314.84 351.79
  L 298.93 341.24"
/>
<path stroke="#0D7377" vector-effect="non-scaling-stroke" d="
  M 695.63 500.31
  Q 694.57 509.32 691.16 522.46
  Q 681.98 557.85 662.30 586.55
  Q 646.86 609.06 628.53 625.75"
/>
<path stroke="#0D7377" vector-effect="non-scaling-stroke" d="
  M 628.53 625.75
  Q 609.54 642.07 589.74 653.00
  Q 535.48 682.95 472.01 677.03
  C 470.42 676.88 468.32 676.87 467.01 677.25
  C 449.58 682.30 431.38 683.96 413.21 683.55
  A 0.22 0.22 0.0 0 0 413.12 683.97
  Q 419.72 686.89 428.91 689.33
  Q 462.79 698.31 500.92 696.93
  C 513.91 696.45 526.64 694.37 538.73 691.94
  C 576.40 684.38 611.55 666.10 640.13 640.76"
/>
<path stroke="#0D7377" vector-effect="non-scaling-stroke" d="
  M 640.13 640.76
  Q 679.50 605.91 699.88 557.59
  Q 710.89 531.48 714.90 503.19"
/>
<path stroke="#0D7377" vector-effect="non-scaling-stroke" d="
  M 714.90 503.19
  Q 717.82 480.14 717.21 467.00
  Q 716.33 448.22 715.62 442.62
  Q 712.80 420.30 705.72 398.78
  Q 688.11 345.27 646.62 306.37
  Q 644.41 304.28 642.04 302.94
  A 1.11 1.11 0.0 0 0 640.83 303.01
  Q 634.74 307.53 629.11 312.86
  Q 627.40 314.48 629.03 315.98
  C 660.70 345.02 683.48 382.00 692.84 423.91
  Q 694.78 432.58 696.08 443.97
  Q 697.61 457.44 697.85 464.25
  Q 698.38 479.81 695.63 500.31"
/>
<path stroke="#0D7377" vector-effect="non-scaling-stroke" d="
  M 714.90 503.19
  Q 704.78 503.72 695.63 500.31"
/>
<path stroke="#0D7377" vector-effect="non-scaling-stroke" d="
  M 640.13 640.76
  Q 633.23 634.05 628.53 625.75"
/>
<path stroke="#8BBF3A" vector-effect="non-scaling-stroke" d="
  M 426.62 373.44
  Q 406.07 383.71 384.29 401.06
  Q 366.26 415.42 351.90 433.88
  Q 320.69 474.03 318.79 523.77
  C 318.26 537.73 319.94 551.91 323.85 565.09
  C 324.69 567.94 326.50 568.58 329.32 568.89
  Q 342.13 570.26 351.80 569.98"
/>
<path stroke="#8BBF3A" vector-effect="non-scaling-stroke" d="
  M 351.80 569.98
  C 367.40 569.93 381.70 566.30 396.59 560.60
  C 416.08 553.14 431.54 540.20 444.93 525.42
  C 458.55 510.39 467.14 492.19 471.17 472.21
  Q 471.74 469.40 471.62 467.54
  A 1.06 1.05 82.9 0 0 470.38 466.57
  L 424.68 474.80
  A 0.65 0.65 0.0 0 1 423.95 473.96
  C 425.57 468.93 429.20 464.28 432.02 459.85"
/>
<path stroke="#8BBF3A" vector-effect="non-scaling-stroke" d="
  M 432.02 459.85
  Q 441.02 447.73 449.33 441.08
  Q 459.72 432.77 472.32 427.63
  A 0.87 0.87 0.0 0 0 472.55 426.17
  C 462.10 417.24 456.12 403.01 459.08 389.38
  Q 462.50 373.65 475.42 364.98
  Q 483.48 359.56 490.70 356.43
  Q 497.37 353.54 508.35 349.93
  Q 509.12 349.68 510.01 349.39
  A 0.17 0.17 0.0 0 0 510.00 349.07
  Q 509.28 348.88 508.95 348.98
  C 503.35 350.71 497.38 350.56 491.34 351.78
  Q 472.07 355.66 460.23 359.46
  Q 444.67 364.44 426.62 373.44"
/>
<path stroke="#8BBF3A" vector-effect="non-scaling-stroke" d="
  M 432.02 459.85
  Q 410.86 450.39 392.00 436.92"
/>
<path stroke="#8BBF3A" vector-effect="non-scaling-stroke" d="
  M 392.00 436.92
  Q 405.00 418.28 423.59 400.84
  Q 427.69 396.99 430.32 394.90
  C 435.15 391.07 436.34 389.99 441.00 386.07
  A 0.43 0.41 44.9 0 0 440.99 385.42
  L 426.62 373.44"
/>
<path stroke="#8BBF3A" vector-effect="non-scaling-stroke" d="
  M 392.00 436.92
  Q 378.30 455.83 368.46 476.75
  Q 363.39 487.52 359.69 500.12
  Q 355.01 516.11 353.43 523.60
  C 351.89 530.94 351.45 540.72 350.45 548.62
  Q 349.19 558.53 349.15 560.25
  Q 349.04 564.73 351.80 569.98"
/>
<path stroke="#0D7377" vector-effect="non-scaling-stroke" d="
  M 565.38 354.53
  Q 559.76 373.74 549.24 390.75
  Q 537.90 409.08 520.20 418.68
  Q 504.61 427.13 496.19 430.68
  Q 481.07 437.06 472.88 441.38
  Q 458.34 449.03 446.15 460.19
  A 0.16 0.16 0.0 0 0 446.32 460.45
  C 452.29 457.92 459.84 455.61 465.71 453.78
  Q 474.89 450.92 484.95 450.00
  A 1.76 1.76 0.0 0 1 486.86 451.62
  Q 487.75 463.21 485.10 474.63
  C 480.13 496.13 470.66 514.19 457.13 530.85
  A 0.21 0.21 0.0 0 0 457.40 531.16
  Q 467.78 524.80 477.81 516.30
  Q 498.85 498.46 515.85 475.60
  Q 519.98 470.03 530.29 454.49
  C 533.70 449.37 536.68 442.99 539.16 438.81
  Q 543.01 432.30 545.35 426.82
  Q 555.18 403.81 558.77 391.02
  Q 561.78 380.30 565.82 354.79
  A 0.32 0.31 -79.5 0 0 565.58 354.43
  L 565.56 354.43
  A 0.16 0.15 14.5 0 0 565.38 354.53"
/>
<path stroke="#0D7377" vector-effect="non-scaling-stroke" d="
  M 569.61 476.20
  Q 543.00 514.19 505.67 541.88"
/>
<path stroke="#0D7377" vector-effect="non-scaling-stroke" d="
  M 505.67 541.88
  Q 491.10 552.40 481.15 558.66
  Q 466.45 567.89 447.93 576.27"
/>
<path stroke="#0D7377" vector-effect="non-scaling-stroke" d="
  M 447.93 576.27
  C 415.79 591.30 380.20 597.90 346.02 593.07
  C 319.30 589.29 293.46 576.65 276.11 555.73
  A 0.38 0.38 0.0 0 0 275.46 556.11
  Q 290.24 593.29 316.56 621.88
  C 333.85 640.66 353.73 654.59 377.07 662.68
  C 400.93 670.96 427.22 671.46 451.80 666.30
  Q 488.24 658.65 521.60 640.30
  Q 525.68 638.05 529.42 635.88"
/>
<path stroke="#0D7377" vector-effect="non-scaling-stroke" d="
  M 529.42 635.88
  Q 551.70 622.56 569.75 606.50
  Q 575.44 601.44 584.21 592.71"
/>
<path stroke="#0D7377" vector-effect="non-scaling-stroke" d="
  M 584.21 592.71
  Q 623.71 552.77 640.86 499.72
  C 643.44 491.73 645.45 482.58 646.95 474.48
  Q 649.99 458.16 648.57 440.98"
/>
<path stroke="#0D7377" vector-effect="non-scaling-stroke" d="
  M 648.57 440.98
  Q 646.58 411.33 629.48 387.58
  Q 620.04 374.48 607.34 364.21
  A 0.53 0.52 -72.6 0 0 606.49 364.66
  C 607.59 380.45 606.16 394.29 601.72 409.83
  C 595.01 433.34 583.94 455.93 569.61 476.20"
/>
<path stroke="#0D7377" vector-effect="non-scaling-stroke" d="
  M 648.57 440.98
  C 640.87 445.02 633.42 444.67 625.00 443.92
  A 0.58 0.58 0.0 0 0 624.39 444.37
  Q 620.90 460.45 615.55 474.58
  Q 611.77 484.56 605.48 495.24
  A 0.49 0.49 0.0 0 1 604.82 495.42
  L 569.61 476.20"
/>
<path stroke="#0D7377" vector-effect="non-scaling-stroke" d="
  M 584.21 592.71
  Q 568.22 579.76 554.42 564.17
  A 0.53 0.53 0.0 0 0 553.68 564.11
  L 548.48 568.37
  A 0.81 0.79 -49.4 0 1 547.58 568.45
  Q 525.86 556.48 505.67 541.88"
/>
<path stroke="#0D7377" vector-effect="non-scaling-stroke" d="
  M 529.42 635.88
  Q 518.06 616.86 500.20 604.28
  A 0.97 0.96 -39.9 0 0 499.25 604.20
  L 485.08 610.66
  A 0.84 0.82 -36.1 0 1 484.18 610.53
  C 468.28 596.63 458.66 587.83 447.93 576.27"
/>
<path stroke="#0D7377" vector-effect="non-scaling-stroke" d="
  M 492.7816 375.4600
  A 23.32 22.69 -99.2 0 0 474.1119 402.1077
  A 23.32 22.69 -99.2 0 0 500.2384 421.5000
  A 23.32 22.69 -99.2 0 0 518.9081 394.8523
  A 23.32 22.69 -99.2 0 0 492.7816 375.4600"
/>
<path stroke="#8BBF3A" vector-effect="non-scaling-stroke" d="
  M 807.93 788.68
  L 807.93 734.70
  A 1.72 1.72 0.0 0 0 805.90 733.01
  L 789.02 736.05
  A 1.33 1.32 -89.9 0 0 787.95 737.13
  Q 787.82 737.89 787.82 739.75
  Q 787.72 768.82 787.54 840.25
  Q 787.52 847.86 787.68 856.25
  Q 787.70 857.30 787.90 857.92
  A 0.91 0.91 0.0 0 0 788.76 858.54
  L 806.53 858.54
  A 1.17 1.17 0.0 0 0 807.70 857.37
  Q 807.68 827.62 807.39 809.52
  C 807.28 802.53 810.77 797.94 816.41 794.40
  C 822.30 790.70 829.93 791.30 834.57 796.59
  C 836.83 799.17 837.59 804.77 837.62 808.00
  Q 837.71 816.35 837.70 845.24
  C 837.70 862.13 854.00 862.74 865.54 857.77
  A 1.96 1.96 0.0 0 0 866.72 855.80
  L 866.15 849.47
  A 0.88 0.88 0.0 0 0 865.31 848.67
  L 861.40 848.52
  A 0.95 0.95 0.0 0 1 860.89 848.35
  C 857.72 846.18 857.95 840.75 857.88 837.00
  Q 857.50 817.99 857.26 799.52
  C 857.12 789.20 851.15 779.57 840.69 777.40
  C 829.94 775.16 820.54 777.77 813.20 785.31
  Q 811.28 787.28 809.16 789.22
  A 0.74 0.73 -21.2 0 1 807.93 788.68"
/>
<path stroke="#0D7377" vector-effect="non-scaling-stroke" d="
  M 442.75 749.69
  A 12.74 12.74 0.0 0 0 430.01 736.95
  A 12.74 12.74 0.0 0 0 417.27 749.69
  A 12.74 12.74 0.0 0 0 430.01 762.43
  A 12.74 12.74 0.0 0 0 442.75 749.69"
/>
<path stroke="#8BBF3A" vector-effect="non-scaling-stroke" d="
  M 582.10 816.89
  C 601.10 817.96 623.38 816.93 634.06 798.67
  Q 643.69 782.22 639.34 764.20
  C 634.89 745.77 618.95 738.78 601.24 738.80
  Q 577.71 738.83 562.25 738.81
  A 1.36 1.36 0.0 0 0 560.89 740.17
  L 560.89 857.66
  A 0.90 0.90 0.0 0 0 561.79 858.56
  L 580.18 858.56
  A 1.24 1.23 0.0 0 0 581.42 857.33
  L 581.42 817.54
  A 0.65 0.64 -88.3 0 1 582.10 816.89"
/>
<path stroke="#0D7377" vector-effect="non-scaling-stroke" d="
  M 232.47 857.98
  C 224.72 833.87 215.82 809.69 207.65 783.47
  Q 203.15 769.05 193.68 740.03
  A 1.38 1.38 0.0 0 0 192.37 739.08
  L 173.21 739.08
  A 2.57 2.56 9.4 0 0 170.78 740.82
  L 131.49 857.59
  A 0.80 0.80 0.0 0 0 132.25 858.64
  L 149.11 858.64
  A 0.91 0.91 0.0 0 0 149.98 858.00
  L 159.02 828.83
  A 0.61 0.60 8.4 0 1 159.60 828.41
  L 199.59 828.41
  A 1.18 1.16 -8.3 0 1 200.71 829.23
  L 209.62 857.85
  A 0.88 0.87 81.4 0 0 210.45 858.47
  L 232.12 858.47
  A 0.38 0.37 81.3 0 0 232.47 857.98"
/>
<path stroke="#8BBF3A" vector-effect="non-scaling-stroke" d="
  M 734.07 792.55
  Q 734.15 793.11 734.29 796.50
  Q 734.36 798.10 734.35 834.50
  C 734.35 839.17 734.29 844.43 735.84 848.51
  Q 740.33 860.36 754.33 860.57
  Q 763.81 860.72 773.05 857.10
  A 1.82 1.81 -13.4 0 0 774.20 855.24
  L 773.41 846.35
  A 0.80 0.80 0.0 0 0 772.30 845.69
  C 762.84 849.74 754.36 848.05 753.90 836.00
  Q 753.06 813.69 753.88 792.60
  A 0.81 0.81 0.0 0 1 754.69 791.83
  L 773.48 791.83
  A 1.26 1.26 0.0 0 0 774.74 790.57
  L 774.74 779.47
  A 1.02 1.01 0.0 0 0 773.72 778.46
  L 754.74 778.46
  A 1.32 1.31 -90.0 0 1 753.43 777.14
  L 753.43 750.51
  A 0.69 0.68 -8.5 0 0 752.54 749.86
  L 735.61 755.13
  A 2.13 2.11 81.5 0 0 734.12 757.16
  L 734.12 777.26
  A 1.33 1.33 0.0 0 1 732.79 778.59
  L 722.74 778.59
  A 1.20 1.20 0.0 0 0 721.54 779.79
  L 721.54 790.38
  A 1.43 1.42 -0.0 0 0 722.97 791.80
  L 733.23 791.80
  A 0.86 0.85 86.1 0 1 734.07 792.55"
/>
<path stroke="#0D7377" vector-effect="non-scaling-stroke" d="
  M 482.99 857.86
  Q 483.31 846.85 483.13 816.60
  Q 483.09 808.52 483.35 806.91
  C 484.67 798.95 492.54 791.44 500.98 791.73
  C 513.17 792.14 514.02 801.94 513.87 812.54
  Q 513.66 826.89 513.83 841.00
  Q 513.93 848.60 514.97 851.45
  C 519.14 862.83 533.12 860.96 542.38 857.73
  A 1.33 1.33 0.0 0 0 543.28 856.47
  L 543.28 849.49
  A 0.91 0.91 0.0 0 0 542.37 848.58
  L 538.55 848.58
  A 2.91 2.90 66.5 0 1 536.56 847.79
  Q 534.27 845.62 534.23 841.77
  Q 533.99 818.64 534.05 808.53
  Q 534.11 798.49 533.05 794.22
  Q 529.28 779.15 515.06 776.97
  C 501.21 774.86 492.38 780.64 483.52 790.55
  A 0.47 0.47 0.0 0 1 482.70 790.24
  L 482.70 778.79
  A 0.81 0.81 0.0 0 0 481.89 777.98
  L 463.20 777.98
  A 0.58 0.58 0.0 0 0 462.62 778.56
  L 462.62 857.95
  A 0.60 0.60 0.0 0 0 463.22 858.55
  L 482.28 858.55
  A 0.71 0.71 0.0 0 0 482.99 857.86"
/>
<path stroke="#8BBF3A" vector-effect="non-scaling-stroke" d="
  M 687.19 811.18
  Q 676.19 812.77 666.71 815.42
  C 654.99 818.71 642.58 823.88 641.49 837.42
  C 640.20 853.53 651.54 862.09 666.96 860.29
  C 675.58 859.28 682.18 855.32 688.91 849.98
  A 0.99 0.99 0.0 0 1 690.45 850.41
  C 691.97 854.39 694.15 858.85 698.93 859.79
  C 703.87 860.75 711.51 859.77 716.55 857.58
  A 1.65 1.65 0.0 0 0 717.54 856.07
  L 717.54 848.66
  A 0.88 0.88 0.0 0 0 716.41 847.81
  C 714.18 848.46 709.88 848.76 708.97 845.48
  C 708.11 842.41 707.85 838.94 707.86 836.51
  Q 707.91 819.98 707.86 805.59
  C 707.85 801.56 707.48 795.84 706.32 792.39
  Q 702.01 779.54 688.47 777.30
  Q 667.66 773.86 651.26 786.80
  Q 649.51 788.18 649.59 790.76
  Q 649.83 798.91 649.74 801.98
  A 0.66 0.66 0.0 0 0 650.65 802.61
  Q 651.50 802.25 651.88 801.90
  C 659.65 794.77 670.37 789.01 680.62 792.23
  C 688.32 794.65 688.63 803.85 687.79 810.57
  A 0.69 0.69 0.0 0 1 687.19 811.18"
/>
<path stroke="#0D7377" vector-effect="non-scaling-stroke" d="
  M 354.84 818.01
  A 0.39 0.39 0.0 0 1 354.83 818.45
  L 326.79 857.90
  A 0.39 0.39 0.0 0 0 327.11 858.52
  L 345.05 858.52
  A 0.39 0.39 0.0 0 0 345.37 858.34
  L 363.14 830.21
  A 0.39 0.39 0.0 0 1 363.80 830.21
  L 381.90 858.47
  A 0.39 0.39 0.0 0 0 382.23 858.65
  L 404.62 858.65
  A 0.39 0.39 0.0 0 0 404.94 858.04
  L 376.47 815.92
  A 0.39 0.39 0.0 0 1 376.47 815.48
  L 401.85 778.54
  A 0.39 0.39 0.0 0 0 401.53 777.93
  L 384.30 777.93
  A 0.39 0.39 0.0 0 0 383.98 778.11
  L 367.99 803.43
  A 0.39 0.39 0.0 0 1 367.33 803.43
  L 351.24 778.31
  A 0.39 0.39 0.0 0 0 350.91 778.13
  L 328.61 778.13
  A 0.39 0.39 0.0 0 0 328.29 778.74
  L 354.84 818.01"
/>
<path stroke="#0D7377" vector-effect="non-scaling-stroke" d="
  M 240.66 778.91
  Q 240.41 815.06 240.46 826.00
  C 240.53 839.66 241.40 854.34 255.43 859.15
  C 269.26 863.90 281.30 857.09 290.52 846.87
  A 0.69 0.69 0.0 0 1 291.72 847.28
  C 292.21 853.69 295.12 859.21 302.31 859.92
  Q 310.49 860.71 318.94 857.14
  A 1.62 1.61 -11.7 0 0 319.92 855.66
  L 319.92 848.03
  A 0.74 0.74 0.0 0 0 319.01 847.31
  C 316.30 847.94 312.73 848.96 311.90 845.32
  Q 311.56 843.80 311.53 838.75
  Q 311.40 813.56 311.40 778.74
  A 0.65 0.64 90.0 0 0 310.76 778.09
  L 291.47 778.09
  A 0.50 0.49 -90.0 0 0 290.98 778.59
  Q 290.98 802.29 290.69 830.74
  C 290.62 838.50 280.75 845.36 273.77 845.13
  C 261.28 844.72 261.12 831.97 261.04 822.75
  Q 260.87 802.38 260.86 779.02
  A 0.84 0.83 89.7 0 0 260.03 778.19
  L 241.39 778.19
  A 0.73 0.72 -0.0 0 0 240.66 778.91"
/>
<path stroke="#0D7377" vector-effect="non-scaling-stroke" d="
  M 439.63 778.89
  A 0.72 0.72 0.0 0 0 438.91 778.17
  L 420.03 778.17
  A 0.72 0.72 0.0 0 0 419.31 778.89
  L 419.31 857.83
  A 0.72 0.72 0.0 0 0 420.03 858.55
  L 438.91 858.55
  A 0.72 0.72 0.0 0 0 439.63 857.83
  L 439.63 778.89"
/>
<path stroke="#8BBF3A" vector-effect="non-scaling-stroke" d="
  M 581.53 752.94
  L 581.19 801.50
  A 1.50 1.50 0.0 0 0 582.68 803.01
  L 596.24 803.10
  A 22.59 22.58 -89.6 0 0 618.98 780.67
  L 619.02 774.29
  A 22.59 22.58 -89.6 0 0 596.60 751.54
  L 583.04 751.45
  A 1.50 1.50 0.0 0 0 581.53 752.94"
/>
<path stroke="#0D7377" vector-effect="non-scaling-stroke" d="
  M 163.85 812.49
  A 0.91 0.91 0.0 0 0 164.72 813.67
  L 195.04 813.62
  A 0.91 0.91 0.0 0 0 195.91 812.44
  L 180.66 764.30
  A 0.91 0.91 0.0 0 0 178.93 764.31
  L 163.85 812.49"
/>
<path stroke="#8BBF3A" vector-effect="non-scaling-stroke" d="
  M 687.87 822.18
  A 1.16 1.15 -4.5 0 0 686.53 821.04
  Q 679.91 822.08 672.56 824.01
  Q 664.11 826.22 661.58 833.53
  Q 660.27 837.32 661.19 840.53
  C 663.14 847.31 669.72 848.78 676.01 847.03
  Q 679.81 845.97 685.15 842.69
  Q 688.10 840.89 688.04 837.52
  Q 687.94 831.65 687.87 822.18"
/>
</g>
<path fill="#8BBF3A" d="
  M 589.85 382.29
  Q 581.97 377.31 575.22 370.92
  Q 576.30 363.01 577.55 355.01
  Q 579.13 344.86 578.83 322.00
  Q 578.55 300.56 573.23 280.41
  Q 567.58 258.99 551.69 241.81
  Q 540.27 229.46 528.43 221.79
  C 522.54 217.99 516.29 215.45 509.61 212.91
  Q 506.18 211.61 502.48 211.44
  A 0.34 0.34 0.0 0 0 502.20 212.00
  Q 503.04 212.97 503.66 213.36
  Q 511.93 218.63 520.32 225.44
  C 536.95 238.94 551.39 253.75 559.95 273.84
  A 0.89 0.89 0.0 0 1 559.10 275.08
  Q 535.51 274.08 514.32 265.51
  Q 492.01 256.49 478.65 237.88
  C 468.03 223.08 461.95 205.65 458.78 187.91
  A 0.97 0.97 0.0 0 1 459.51 186.80
  Q 462.69 186.02 466.00 185.95
  Q 481.19 185.67 494.94 187.36
  Q 511.01 189.33 523.01 194.21
  Q 540.10 201.15 553.77 212.97
  C 563.71 221.58 572.76 233.94 577.63 245.62
  Q 584.04 261.01 586.06 268.66
  Q 590.26 284.58 590.95 287.80
  A 0.33 0.32 -40.1 0 0 591.57 287.85
  C 593.90 282.06 595.89 274.42 597.73 269.64
  Q 611.38 234.24 637.49 209.25
  C 658.55 189.09 685.06 174.48 714.23 167.68
  Q 733.03 163.30 748.26 161.83
  Q 756.07 161.08 777.81 159.44
  Q 797.12 157.98 815.28 151.64
  A 1.02 1.02 0.0 0 1 816.63 152.76
  Q 815.59 159.18 813.85 165.40
  C 801.92 208.03 780.09 249.65 737.45 270.20
  C 729.62 273.98 719.90 277.65 711.08 279.57
  C 696.28 282.81 680.35 283.68 665.19 284.02
  C 648.05 284.42 632.89 289.72 620.35 301.87
  Q 614.34 307.70 609.73 313.14
  A 0.35 0.35 0.0 0 1 609.13 312.83
  Q 609.78 310.10 611.36 305.58
  Q 614.19 297.43 620.39 285.12
  Q 635.14 255.80 662.33 235.33
  Q 689.72 214.71 723.46 201.97
  Q 740.31 195.61 755.74 190.24
  Q 757.59 189.59 759.14 188.82
  A 0.16 0.16 0.0 0 0 759.07 188.52
  C 744.52 188.43 730.19 190.99 716.50 194.50
  Q 710.54 196.02 701.54 199.80
  C 693.17 203.32 681.57 208.48 670.83 214.55
  C 651.50 225.49 634.59 240.97 620.99 258.24
  Q 617.57 262.59 612.08 273.29
  Q 606.02 285.09 602.03 299.62
  C 597.97 314.39 597.12 327.95 595.60 347.02
  Q 594.39 362.20 589.85 382.29
  Z"
/>
<path fill="#0D7377" d="
  M 314.84 351.79
  L 298.93 341.24
  C 322.73 306.39 358.00 277.49 396.98 261.00
  Q 415.33 253.23 433.26 248.80
  Q 447.23 245.34 464.52 243.80
  C 466.59 243.62 467.48 244.12 468.69 245.80
  Q 474.38 253.75 481.46 260.83
  A 0.74 0.73 -23.3 0 1 480.96 262.08
  Q 463.03 262.77 443.26 266.30
  Q 421.84 270.13 398.85 281.07
  Q 388.10 286.19 380.04 291.08
  Q 341.09 314.72 314.84 351.79
  Z"
/>
<path fill="#0D7377" d="
  M 714.90 503.19
  Q 704.78 503.72 695.63 500.31
  Q 698.38 479.81 697.85 464.25
  Q 697.61 457.44 696.08 443.97
  Q 694.78 432.58 692.84 423.91
  C 683.48 382.00 660.70 345.02 629.03 315.98
  Q 627.40 314.48 629.11 312.86
  Q 634.74 307.53 640.83 303.01
  A 1.11 1.11 0.0 0 1 642.04 302.94
  Q 644.41 304.28 646.62 306.37
  Q 688.11 345.27 705.72 398.78
  Q 712.80 420.30 715.62 442.62
  Q 716.33 448.22 717.21 467.00
  Q 717.82 480.14 714.90 503.19
  Z"
/>
<path fill="#0D7377" d="
  M 298.93 341.24
  L 314.84 351.79
  Q 285.72 394.00 279.82 443.77
  Q 274.02 492.65 290.39 538.22
  Q 294.49 549.62 297.54 557.03
  A 0.35 0.35 0.0 0 1 297.01 557.44
  C 283.71 547.96 271.75 535.63 265.54 520.95
  Q 263.15 515.31 261.83 506.97
  Q 248.67 424.00 291.49 352.47
  Q 294.95 346.69 298.93 341.24
  Z"
/>
<path fill="#8BBF3A" d="
  M 432.02 459.85
  Q 410.86 450.39 392.00 436.92
  Q 405.00 418.28 423.59 400.84
  Q 427.69 396.99 430.32 394.90
  C 435.15 391.07 436.34 389.99 441.00 386.07
  A 0.43 0.41 44.9 0 0 440.99 385.42
  L 426.62 373.44
  Q 444.67 364.44 460.23 359.46
  Q 472.07 355.66 491.34 351.78
  C 497.38 350.56 503.35 350.71 508.95 348.98
  Q 509.28 348.88 510.00 349.07
  A 0.17 0.17 0.0 0 1 510.01 349.39
  Q 509.12 349.68 508.35 349.93
  Q 497.37 353.54 490.70 356.43
  Q 483.48 359.56 475.42 364.98
  Q 462.50 373.65 459.08 389.38
  C 456.12 403.01 462.10 417.24 472.55 426.17
  A 0.87 0.87 0.0 0 1 472.32 427.63
  Q 459.72 432.77 449.33 441.08
  Q 441.02 447.73 432.02 459.85
  Z"
/>
<path fill="#0D7377" d="
  M 565.38 354.53
  A 0.16 0.15 14.5 0 1 565.56 354.43
  L 565.58 354.43
  A 0.32 0.31 -79.5 0 1 565.82 354.79
  Q 561.78 380.30 558.77 391.02
  Q 555.18 403.81 545.35 426.82
  Q 543.01 432.30 539.16 438.81
  C 536.68 442.99 533.70 449.37 530.29 454.49
  Q 519.98 470.03 515.85 475.60
  Q 498.85 498.46 477.81 516.30
  Q 467.78 524.80 457.40 531.16
  A 0.21 0.21 0.0 0 1 457.13 530.85
  C 470.66 514.19 480.13 496.13 485.10 474.63
  Q 487.75 463.21 486.86 451.62
  A 1.76 1.76 0.0 0 0 484.95 450.00
  Q 474.89 450.92 465.71 453.78
  C 459.84 455.61 452.29 457.92 446.32 460.45
  A 0.16 0.16 0.0 0 1 446.15 460.19
  Q 458.34 449.03 472.88 441.38
  Q 481.07 437.06 496.19 430.68
  Q 504.61 427.13 520.20 418.68
  Q 537.90 409.08 549.24 390.75
  Q 559.76 373.74 565.38 354.53
  Z"
/>
<path fill="#0D7377" d="
  M 648.57 440.98
  C 640.87 445.02 633.42 444.67 625.00 443.92
  A 0.58 0.58 0.0 0 0 624.39 444.37
  Q 620.90 460.45 615.55 474.58
  Q 611.77 484.56 605.48 495.24
  A 0.49 0.49 0.0 0 1 604.82 495.42
  L 569.61 476.20
  C 583.94 455.93 595.01 433.34 601.72 409.83
  C 606.16 394.29 607.59 380.45 606.49 364.66
  A 0.53 0.52 -72.6 0 1 607.34 364.21
  Q 620.04 374.48 629.48 387.58
  Q 646.58 411.33 648.57 440.98
  Z"
/>
<path fill="#8BBF3A" d="
  M 589.85 382.29
  Q 586.68 397.91 580.09 415.14
  Q 570.88 439.21 559.99 456.99
  Q 532.31 502.19 490.02 532.76
  Q 476.23 542.73 462.00 550.97
  Q 424.54 572.68 380.43 580.41
  Q 375.08 581.35 368.75 581.88
  Q 368.74 581.88 368.64 581.88
  L 368.76 581.88
  A 5.28 5.00 -50.4 0 0 369.99 581.73
  Q 384.54 578.16 394.87 574.58
  Q 406.49 570.55 421.63 563.65
  C 440.50 555.07 456.86 545.17 472.81 533.30
  Q 477.65 529.70 487.63 521.31
  Q 495.41 514.77 501.67 508.43
  Q 518.29 491.58 528.73 477.49
  Q 549.54 449.40 562.99 415.77
  C 568.38 402.31 571.66 388.04 575.22 370.92
  Q 581.97 377.31 589.85 382.29
  Z"
/>
<path fill="#8BBF3A" d="
  M 426.62 373.44
  L 440.99 385.42
  A 0.43 0.41 44.9 0 1 441.00 386.07
  C 436.34 389.99 435.15 391.07 430.32 394.90
  Q 427.69 396.99 423.59 400.84
  Q 405.00 418.28 392.00 436.92
  Q 378.30 455.83 368.46 476.75
  Q 363.39 487.52 359.69 500.12
  Q 355.01 516.11 353.43 523.60
  C 351.89 530.94 351.45 540.72 350.45 548.62
  Q 349.19 558.53 349.15 560.25
  Q 349.04 564.73 351.80 569.98
  Q 342.13 570.26 329.32 568.89
  C 326.50 568.58 324.69 567.94 323.85 565.09
  C 319.94 551.91 318.26 537.73 318.79 523.77
  Q 320.69 474.03 351.90 433.88
  Q 366.26 415.42 384.29 401.06
  Q 406.07 383.71 426.62 373.44
  Z"
/>
<ellipse fill="#0D7377" cx="0.00" cy="0.00" transform="translate(496.51,398.48) rotate(-99.2)" rx="23.32" ry="22.69"/>
<path fill="#8BBF3A" d="
  M 392.00 436.92
  Q 410.86 450.39 432.02 459.85
  C 429.20 464.28 425.57 468.93 423.95 473.96
  A 0.65 0.65 0.0 0 0 424.68 474.80
  L 470.38 466.57
  A 1.06 1.05 82.9 0 1 471.62 467.54
  Q 471.74 469.40 471.17 472.21
  C 467.14 492.19 458.55 510.39 444.93 525.42
  C 431.54 540.20 416.08 553.14 396.59 560.60
  C 381.70 566.30 367.40 569.93 351.80 569.98
  Q 349.04 564.73 349.15 560.25
  Q 349.19 558.53 350.45 548.62
  C 351.45 540.72 351.89 530.94 353.43 523.60
  Q 355.01 516.11 359.69 500.12
  Q 363.39 487.52 368.46 476.75
  Q 378.30 455.83 392.00 436.92
  Z"
/>
<path fill="#0D7377" d="
  M 648.57 440.98
  Q 649.99 458.16 646.95 474.48
  C 645.45 482.58 643.44 491.73 640.86 499.72
  Q 623.71 552.77 584.21 592.71
  Q 568.22 579.76 554.42 564.17
  A 0.53 0.53 0.0 0 0 553.68 564.11
  L 548.48 568.37
  A 0.81 0.79 -49.4 0 1 547.58 568.45
  Q 525.86 556.48 505.67 541.88
  Q 543.00 514.19 569.61 476.20
  L 604.82 495.42
  A 0.49 0.49 0.0 0 0 605.48 495.24
  Q 611.77 484.56 615.55 474.58
  Q 620.90 460.45 624.39 444.37
  A 0.58 0.58 0.0 0 1 625.00 443.92
  C 633.42 444.67 640.87 445.02 648.57 440.98
  Z"
/>
<path fill="#0D7377" d="
  M 695.63 500.31
  Q 704.78 503.72 714.90 503.19
  Q 710.89 531.48 699.88 557.59
  Q 679.50 605.91 640.13 640.76
  Q 633.23 634.05 628.53 625.75
  Q 646.86 609.06 662.30 586.55
  Q 681.98 557.85 691.16 522.46
  Q 694.57 509.32 695.63 500.31
  Z"
/>
<path fill="#0D7377" d="
  M 505.67 541.88
  Q 525.86 556.48 547.58 568.45
  A 0.81 0.79 -49.4 0 0 548.48 568.37
  L 553.68 564.11
  A 0.53 0.53 0.0 0 1 554.42 564.17
  Q 568.22 579.76 584.21 592.71
  Q 575.44 601.44 569.75 606.50
  Q 551.70 622.56 529.42 635.88
  Q 518.06 616.86 500.20 604.28
  A 0.97 0.96 -39.9 0 0 499.25 604.20
  L 485.08 610.66
  A 0.84 0.82 -36.1 0 1 484.18 610.53
  C 468.28 596.63 458.66 587.83 447.93 576.27
  Q 466.45 567.89 481.15 558.66
  Q 491.10 552.40 505.67 541.88
  Z"
/>
<path fill="#0D7377" d="
  M 447.93 576.27
  C 458.66 587.83 468.28 596.63 484.18 610.53
  A 0.84 0.82 -36.1 0 0 485.08 610.66
  L 499.25 604.20
  A 0.97 0.96 -39.9 0 1 500.20 604.28
  Q 518.06 616.86 529.42 635.88
  Q 525.68 638.05 521.60 640.30
  Q 488.24 658.65 451.80 666.30
  C 427.22 671.46 400.93 670.96 377.07 662.68
  C 353.73 654.59 333.85 640.66 316.56 621.88
  Q 290.24 593.29 275.46 556.11
  A 0.38 0.38 0.0 0 1 276.11 555.73
  C 293.46 576.65 319.30 589.29 346.02 593.07
  C 380.20 597.90 415.79 591.30 447.93 576.27
  Z"
/>
<path fill="#0D7377" d="
  M 628.53 625.75
  Q 633.23 634.05 640.13 640.76
  C 611.55 666.10 576.40 684.38 538.73 691.94
  C 526.64 694.37 513.91 696.45 500.92 696.93
  Q 462.79 698.31 428.91 689.33
  Q 419.72 686.89 413.12 683.97
  A 0.22 0.22 0.0 0 1 413.21 683.55
  C 431.38 683.96 449.58 682.30 467.01 677.25
  C 468.32 676.87 470.42 676.88 472.01 677.03
  Q 535.48 682.95 589.74 653.00
  Q 609.54 642.07 628.53 625.75
  Z"
/>
<path fill="#8BBF3A" d="
  M 807.93 788.68
  A 0.74 0.73 -21.2 0 0 809.16 789.22
  Q 811.28 787.28 813.20 785.31
  C 820.54 777.77 829.94 775.16 840.69 777.40
  C 851.15 779.57 857.12 789.20 857.26 799.52
  Q 857.50 817.99 857.88 837.00
  C 857.95 840.75 857.72 846.18 860.89 848.35
  A 0.95 0.95 0.0 0 0 861.40 848.52
  L 865.31 848.67
  A 0.88 0.88 0.0 0 1 866.15 849.47
  L 866.72 855.80
  A 1.96 1.96 0.0 0 1 865.54 857.77
  C 854.00 862.74 837.70 862.13 837.70 845.24
  Q 837.71 816.35 837.62 808.00
  C 837.59 804.77 836.83 799.17 834.57 796.59
  C 829.93 791.30 822.30 790.70 816.41 794.40
  C 810.77 797.94 807.28 802.53 807.39 809.52
  Q 807.68 827.62 807.70 857.37
  A 1.17 1.17 0.0 0 1 806.53 858.54
  L 788.76 858.54
  A 0.91 0.91 0.0 0 1 787.90 857.92
  Q 787.70 857.30 787.68 856.25
  Q 787.52 847.86 787.54 840.25
  Q 787.72 768.82 787.82 739.75
  Q 787.82 737.89 787.95 737.13
  A 1.33 1.32 -89.9 0 1 789.02 736.05
  L 805.90 733.01
  A 1.72 1.72 0.0 0 1 807.93 734.70
  L 807.93 788.68
  Z"
/>
<circle fill="#0D7377" cx="430.01" cy="749.69" r="12.74"/>
<path fill="#8BBF3A" d="
  M 582.10 816.89
  A 0.65 0.64 -88.3 0 0 581.42 817.54
  L 581.42 857.33
  A 1.24 1.23 -0.0 0 1 580.18 858.56
  L 561.79 858.56
  A 0.90 0.90 0.0 0 1 560.89 857.66
  L 560.89 740.17
  A 1.36 1.36 0.0 0 1 562.25 738.81
  Q 577.71 738.83 601.24 738.80
  C 618.95 738.78 634.89 745.77 639.34 764.20
  Q 643.69 782.22 634.06 798.67
  C 623.38 816.93 601.10 817.96 582.10 816.89
  Z
  M 581.53 752.94
  L 581.19 801.50
  A 1.50 1.50 0.0 0 0 582.68 803.01
  L 596.24 803.10
  A 22.59 22.58 -89.6 0 0 618.98 780.67
  L 619.02 774.29
  A 22.59 22.58 -89.6 0 0 596.60 751.54
  L 583.04 751.45
  A 1.50 1.50 0.0 0 0 581.53 752.94
  Z"
/>
<path fill="#0D7377" d="
  M 232.47 857.98
  A 0.38 0.37 81.3 0 1 232.12 858.47
  L 210.45 858.47
  A 0.88 0.87 81.4 0 1 209.62 857.85
  L 200.71 829.23
  A 1.18 1.16 -8.3 0 0 199.59 828.41
  L 159.60 828.41
  A 0.61 0.60 8.4 0 0 159.02 828.83
  L 149.98 858.00
  A 0.91 0.91 0.0 0 1 149.11 858.64
  L 132.25 858.64
  A 0.80 0.80 0.0 0 1 131.49 857.59
  L 170.78 740.82
  A 2.57 2.56 9.4 0 1 173.21 739.08
  L 192.37 739.08
  A 1.38 1.38 0.0 0 1 193.68 740.03
  Q 203.15 769.05 207.65 783.47
  C 215.82 809.69 224.72 833.87 232.47 857.98
  Z
  M 163.85 812.49
  A 0.91 0.91 0.0 0 0 164.72 813.67
  L 195.04 813.62
  A 0.91 0.91 0.0 0 0 195.91 812.44
  L 180.66 764.30
  A 0.91 0.91 0.0 0 0 178.93 764.31
  L 163.85 812.49
  Z"
/>
<path fill="#8BBF3A" d="
  M 733.23 791.80
  L 722.97 791.80
  A 1.43 1.42 -0.0 0 1 721.54 790.38
  L 721.54 779.79
  A 1.20 1.20 0.0 0 1 722.74 778.59
  L 732.79 778.59
  A 1.33 1.33 0.0 0 0 734.12 777.26
  L 734.12 757.16
  A 2.13 2.11 81.5 0 1 735.61 755.13
  L 752.54 749.86
  A 0.69 0.68 -8.5 0 1 753.43 750.51
  L 753.43 777.14
  A 1.32 1.31 -90.0 0 0 754.74 778.46
  L 773.72 778.46
  A 1.02 1.01 -0.0 0 1 774.74 779.47
  L 774.74 790.57
  A 1.26 1.26 0.0 0 1 773.48 791.83
  L 754.69 791.83
  A 0.81 0.81 0.0 0 0 753.88 792.60
  Q 753.06 813.69 753.90 836.00
  C 754.36 848.05 762.84 849.74 772.30 845.69
  A 0.80 0.80 0.0 0 1 773.41 846.35
  L 774.20 855.24
  A 1.82 1.81 -13.4 0 1 773.05 857.10
  Q 763.81 860.72 754.33 860.57
  Q 740.33 860.36 735.84 848.51
  C 734.29 844.43 734.35 839.17 734.35 834.50
  Q 734.36 798.10 734.29 796.50
  Q 734.15 793.11 734.07 792.55
  A 0.86 0.85 86.1 0 0 733.23 791.80
  Z"
/>
<path fill="#0D7377" d="
  M 482.99 857.86
  A 0.71 0.71 0.0 0 1 482.28 858.55
  L 463.22 858.55
  A 0.60 0.60 0.0 0 1 462.62 857.95
  L 462.62 778.56
  A 0.58 0.58 0.0 0 1 463.20 777.98
  L 481.89 777.98
  A 0.81 0.81 0.0 0 1 482.70 778.79
  L 482.70 790.24
  A 0.47 0.47 0.0 0 0 483.52 790.55
  C 492.38 780.64 501.21 774.86 515.06 776.97
  Q 529.28 779.15 533.05 794.22
  Q 534.11 798.49 534.05 808.53
  Q 533.99 818.64 534.23 841.77
  Q 534.27 845.62 536.56 847.79
  A 2.91 2.90 66.5 0 0 538.55 848.58
  L 542.37 848.58
  A 0.91 0.91 0.0 0 1 543.28 849.49
  L 543.28 856.47
  A 1.33 1.33 0.0 0 1 542.38 857.73
  C 533.12 860.96 519.14 862.83 514.97 851.45
  Q 513.93 848.60 513.83 841.00
  Q 513.66 826.89 513.87 812.54
  C 514.02 801.94 513.17 792.14 500.98 791.73
  C 492.54 791.44 484.67 798.95 483.35 806.91
  Q 483.09 808.52 483.13 816.60
  Q 483.31 846.85 482.99 857.86
  Z"
/>
<path fill="#8BBF3A" d="
  M 687.19 811.18
  A 0.69 0.69 0.0 0 0 687.79 810.57
  C 688.63 803.85 688.32 794.65 680.62 792.23
  C 670.37 789.01 659.65 794.77 651.88 801.90
  Q 651.50 802.25 650.65 802.61
  A 0.66 0.66 0.0 0 1 649.74 801.98
  Q 649.83 798.91 649.59 790.76
  Q 649.51 788.18 651.26 786.80
  Q 667.66 773.86 688.47 777.30
  Q 702.01 779.54 706.32 792.39
  C 707.48 795.84 707.85 801.56 707.86 805.59
  Q 707.91 819.98 707.86 836.51
  C 707.85 838.94 708.11 842.41 708.97 845.48
  C 709.88 848.76 714.18 848.46 716.41 847.81
  A 0.88 0.88 0.0 0 1 717.54 848.66
  L 717.54 856.07
  A 1.65 1.65 0.0 0 1 716.55 857.58
  C 711.51 859.77 703.87 860.75 698.93 859.79
  C 694.15 858.85 691.97 854.39 690.45 850.41
  A 0.99 0.99 0.0 0 0 688.91 849.98
  C 682.18 855.32 675.58 859.28 666.96 860.29
  C 651.54 862.09 640.20 853.53 641.49 837.42
  C 642.58 823.88 654.99 818.71 666.71 815.42
  Q 676.19 812.77 687.19 811.18
  Z
  M 687.87 822.18
  A 1.16 1.15 -4.5 0 0 686.53 821.04
  Q 679.91 822.08 672.56 824.01
  Q 664.11 826.22 661.58 833.53
  Q 660.27 837.32 661.19 840.53
  C 663.14 847.31 669.72 848.78 676.01 847.03
  Q 679.81 845.97 685.15 842.69
  Q 688.10 840.89 688.04 837.52
  Q 687.94 831.65 687.87 822.18
  Z"
/>
<path fill="#0D7377" d="
  M 354.84 818.01
  L 328.29 778.74
  A 0.39 0.39 0.0 0 1 328.61 778.13
  L 350.91 778.13
  A 0.39 0.39 0.0 0 1 351.24 778.31
  L 367.33 803.43
  A 0.39 0.39 0.0 0 0 367.99 803.43
  L 383.98 778.11
  A 0.39 0.39 0.0 0 1 384.30 777.93
  L 401.53 777.93
  A 0.39 0.39 0.0 0 1 401.85 778.54
  L 376.47 815.48
  A 0.39 0.39 0.0 0 0 376.47 815.92
  L 404.94 858.04
  A 0.39 0.39 0.0 0 1 404.62 858.65
  L 382.23 858.65
  A 0.39 0.39 0.0 0 1 381.90 858.47
  L 363.80 830.21
  A 0.39 0.39 0.0 0 0 363.14 830.21
  L 345.37 858.34
  A 0.39 0.39 0.0 0 1 345.05 858.52
  L 327.11 858.52
  A 0.39 0.39 0.0 0 1 326.79 857.90
  L 354.83 818.45
  A 0.39 0.39 0.0 0 0 354.84 818.01
  Z"
/>
<path fill="#0D7377" d="
  M 241.39 778.19
  L 260.03 778.19
  A 0.84 0.83 89.7 0 1 260.86 779.02
  Q 260.87 802.38 261.04 822.75
  C 261.12 831.97 261.28 844.72 273.77 845.13
  C 280.75 845.36 290.62 838.50 290.69 830.74
  Q 290.98 802.29 290.98 778.59
  A 0.50 0.49 -90.0 0 1 291.47 778.09
  L 310.76 778.09
  A 0.65 0.64 90.0 0 1 311.40 778.74
  Q 311.40 813.56 311.53 838.75
  Q 311.56 843.80 311.90 845.32
  C 312.73 848.96 316.30 847.94 319.01 847.31
  A 0.74 0.74 0.0 0 1 319.92 848.03
  L 319.92 855.66
  A 1.62 1.61 -11.7 0 1 318.94 857.14
  Q 310.49 860.71 302.31 859.92
  C 295.12 859.21 292.21 853.69 291.72 847.28
  A 0.69 0.69 0.0 0 0 290.52 846.87
  C 281.30 857.09 269.26 863.90 255.43 859.15
  C 241.40 854.34 240.53 839.66 240.46 826.00
  Q 240.41 815.06 240.66 778.91
  A 0.73 0.72 0.0 0 1 241.39 778.19
  Z"
/>
<rect fill="#0D7377" x="419.31" y="778.17" width="20.32" height="80.38" rx="0.72"/>
</svg>
