<?xml version="1.0" encoding="UTF-8"?>
<svg xmlns="http://www.w3.org/2000/svg" viewBox="220 120 620 620">
<!-- AuxinPath Plant Icon (extracted from logo.svg) -->
<path fill="#8BBF3A" d="
  M 589.85 382.29
  Q 581.97 377.31 575.22 370.92
  Q 576.30 363.01 577.55 355.01
  Q 579.13 344.86 578.83 322.00
  Q 578.55 300.56 573.23 280.41
  Q 567.58 258.99 551.69 241.81
  Q 540.27 229.46 528.43 221.79
  C 522.54 217.99 516.29 215.45 509.61 212.91
  Q 506.18 211.61 502.48 211.44
  A 0.34 0.34 0.0 0 0 502.20 212.00
  Q 503.04 212.97 503.66 213.36
  Q 511.93 218.63 520.32 225.44
  C 536.95 238.94 551.39 253.75 559.95 273.84
  A 0.89 0.89 0.0 0 1 559.10 275.08
  Q 535.51 274.08 514.32 265.51
  Q 492.01 256.49 478.65 237.88
  C 468.03 223.08 461.95 205.65 458.78 187.91
  A 0.97 0.97 0.0 0 1 459.51 186.80
  Q 462.69 186.02 466.00 185.95
  Q 481.19 185.67 494.94 187.36
  Q 511.01 189.33 523.01 194.21
  Q 540.10 201.15 553.77 212.97
  C 563.71 221.58 572.76 233.94 577.63 245.62
  Q 584.04 261.01 586.06 268.66
  Q 590.26 284.58 590.95 287.80
  A 0.33 0.32 -40.1 0 0 591.57 287.85
  C 593.90 282.06 595.89 274.42 597.73 269.64
  Q 611.38 234.24 637.49 209.25
  C 658.55 189.09 685.06 174.48 714.23 167.68
  Q 733.03 163.30 748.26 161.83
  Q 756.07 161.08 777.81 159.44
  Q 797.12 157.98 815.28 151.64
  A 1.02 1.02 0.0 0 1 816.63 152.76
  Q 815.59 159.18 813.85 165.40
  C 801.92 208.03 780.09 249.65 737.45 270.20
  C 729.62 273.98 719.90 277.65 711.08 279.57
  C 696.28 282.81 680.35 283.68 665.19 284.02
  C 648.05 284.42 632.89 289.72 620.35 301.87
  Q 614.34 307.70 609.73 313.14
  A 0.35 0.35 0.0 0 1 609.13 312.83
  Q 609.78 310.10 611.36 305.58
  Q 614.19 297.43 620.39 285.12
  Q 635.14 255.80 662.33 235.33
  Q 689.72 214.71 723.46 201.97
  Q 740.31 195.61 755.74 190.24
  Q 757.59 189.59 759.14 188.82
  A 0.16 0.16 0.0 0 0 759.07 188.52
  C 744.52 188.43 730.19 190.99 716.50 194.50
  Q 710.54 196.02 701.54 199.80
  C 693.17 203.32 681.57 208.48 670.83 214.55
  C 651.50 225.49 634.59 240.97 620.99 258.24
  Q 617.57 262.59 612.08 273.29
  Q 606.02 285.09 602.03 299.62
  C 597.97 314.39 597.12 327.95 595.60 347.02
  Q 594.39 362.20 589.85 382.29
  Z"/>
<path fill="#0D7377" d="
  M 314.84 351.79
  L 298.93 341.24
  C 322.73 306.39 358.00 277.49 396.98 261.00
  Q 415.33 253.23 433.26 248.80
  Q 447.23 245.34 464.52 243.80
  C 466.59 243.62 467.48 244.12 468.69 245.80
  Q 474.38 253.75 481.46 260.83
  A 0.74 0.73 -23.3 0 1 480.96 262.08
  Q 463.03 262.77 443.26 266.30
  Q 421.84 270.13 398.85 281.07
  Q 388.10 286.19 380.04 291.08
  Q 341.09 314.72 314.84 351.79
  Z"/>
<path fill="#0D7377" d="
  M 714.90 503.19
  Q 704.78 503.72 695.63 500.31
  Q 698.38 479.81 697.85 464.25
  Q 697.61 457.44 696.08 443.97
  Q 694.78 432.58 692.84 423.91
  C 683.48 382.00 660.70 345.02 629.03 315.98
  Q 627.40 314.48 629.11 312.86
  Q 634.74 307.53 640.83 303.01
  A 1.11 1.11 0.0 0 1 642.04 302.94
  Q 644.41 304.28 646.62 306.37
  Q 688.11 345.27 705.72 398.78
  Q 712.80 420.30 715.62 442.62
  Q 716.33 448.22 717.21 467.00
  Q 717.82 480.14 714.90 503.19
  Z"/>
<path fill="#0D7377" d="
  M 298.93 341.24
  L 314.84 351.79
  Q 285.72 394.00 279.82 443.77
  Q 274.02 492.65 290.39 538.22
  Q 294.49 549.62 297.54 557.03
  A 0.35 0.35 0.0 0 1 297.01 557.44
  C 283.71 547.96 271.75 535.63 265.54 520.95
  Q 263.15 515.31 261.83 506.97
  Q 248.67 424.00 291.49 352.47
  Q 294.95 346.69 298.93 341.24
  Z"/>
<path fill="#8BBF3A" d="
  M 432.02 459.85
  Q 410.86 450.39 392.00 436.92
  Q 405.00 418.28 423.59 400.84
  Q 427.69 396.99 430.32 394.90
  C 435.15 391.07 436.34 389.99 441.00 386.07
  A 0.43 0.41 44.9 0 0 440.99 385.42
  L 426.62 373.44
  Q 444.67 364.44 460.23 359.46
  Q 472.07 355.66 491.34 351.78
  C 497.38 350.56 503.35 350.71 508.95 348.98
  Q 509.28 348.88 510.00 349.07
  A 0.17 0.17 0.0 0 1 510.01 349.39
  Q 509.12 349.68 508.35 349.93
  Q 497.37 353.54 490.70 356.43
  Q 483.48 359.56 475.42 364.98
  Q 462.50 373.65 459.08 389.38
  C 456.12 403.01 462.10 417.24 472.55 426.17
  A 0.87 0.87 0.0 0 1 472.32 427.63
  Q 459.72 432.77 449.33 441.08
  Q 441.02 447.73 432.02 459.85
  Z"/>
<path fill="#0D7377" d="
  M 565.38 354.53
  A 0.16 0.15 14.5 0 1 565.56 354.43
  L 565.58 354.43
  A 0.32 0.31 -79.5 0 1 565.82 354.79
  Q 561.78 380.30 558.77 391.02
  Q 555.18 403.81 545.35 426.82
  Q 543.01 432.30 539.16 438.81
  C 536.68 442.99 533.70 449.37 530.29 454.49
  Q 519.98 470.03 515.85 475.60
  Q 498.85 498.46 477.81 516.30
  Q 467.78 524.80 457.40 531.16
  A 0.21 0.21 0.0 0 1 457.13 530.85
  C 470.66 514.19 480.13 496.13 485.10 474.63
  Q 487.75 463.21 486.86 451.62
  A 1.76 1.76 0.0 0 0 484.95 450.00
  Q 474.89 450.92 465.71 453.78
  C 459.84 455.61 452.29 457.92 446.32 460.45
  A 0.16 0.16 0.0 0 1 446.15 460.19
  Q 458.34 449.03 472.88 441.38
  Q 481.07 437.06 496.19 430.68
  Q 504.61 427.13 520.20 418.68
  Q 537.90 409.08 549.24 390.75
  Q 559.76 373.74 565.38 354.53
  Z"/>
<path fill="#0D7377" d="
  M 648.57 440.98
  C 640.87 445.02 633.42 444.67 625.00 443.92
  A 0.58 0.58 0.0 0 0 624.39 444.37
  Q 620.90 460.45 615.55 474.58
  Q 611.77 484.56 605.48 495.24
  A 0.49 0.49 0.0 0 1 604.82 495.42
  L 569.61 476.20
  C 583.94 455.93 595.01 433.34 601.72 409.83
  C 606.16 394.29 607.59 380.45 606.49 364.66
  A 0.53 0.52 -72.6 0 1 607.34 364.21
  Q 620.04 374.48 629.48 387.58
  Q 646.58 411.33 648.57 440.98
  Z"/>
<path fill="#8BBF3A" d="
  M 589.85 382.29
  Q 586.68 397.91 580.09 415.14
  Q 570.88 439.21 559.99 456.99
  Q 532.31 502.19 490.02 532.76
  Q 476.23 542.73 462.00 550.97
  Q 424.54 572.68 380.43 580.41
  Q 375.08 581.35 368.75 581.88
  Q 368.74 581.88 368.64 581.88
  L 368.76 581.88
  A 5.28 5.00 -50.4 0 0 369.99 581.73
  Q 384.54 578.16 394.87 574.58
  Q 406.49 570.55 421.63 563.65
  C 440.50 555.07 456.86 545.17 472.81 533.30
  Q 477.65 529.70 487.63 521.31
  Q 495.41 514.77 501.67 508.43
  Q 518.29 491.58 528.73 477.49
  Q 549.54 449.40 562.99 415.77
  C 568.38 402.31 571.66 388.04 575.22 370.92
  Q 581.97 377.31 589.85 382.29
  Z"/>
<path fill="#8BBF3A" d="
  M 426.62 373.44
  L 440.99 385.42
  A 0.43 0.41 44.9 0 1 441.00 386.07
  C 436.34 389.99 435.15 391.07 430.32 394.90
  Q 427.69 396.99 423.59 400.84
  Q 405.00 418.28 392.00 436.92
  Q 378.30 455.83 368.46 476.75
  Q 363.39 487.52 359.69 500.12
  Q 355.01 516.11 353.43 523.60
  C 351.89 530.94 351.45 540.72 350.45 548.62
  Q 349.19 558.53 349.15 560.25
  Q 349.04 564.73 351.80 569.98
  Q 342.13 570.26 329.32 568.89
  C 326.50 568.58 324.69 567.94 323.85 565.09
  C 319.94 551.91 318.26 537.73 318.79 523.77
  Q 320.69 474.03 351.90 433.88
  Q 366.26 415.42 384.29 401.06
  Q 406.07 383.71 426.62 373.44
  Z"/>
<ellipse fill="#0D7377" cx="0.00" cy="0.00" transform="translate(496.51,398.48) rotate(-99.2)" rx="23.32" ry="22.69"/>
<path fill="#8BBF3A" d="
  M 392.00 436.92
  Q 410.86 450.39 432.02 459.85
  C 429.20 464.28 425.57 468.93 423.95 473.96
  A 0.65 0.65 0.0 0 0 424.68 474.80
  L 470.38 466.57
  A 1.06 1.05 82.9 0 1 471.62 467.54
  Q 471.74 469.40 471.17 472.21
  C 467.14 492.19 458.55 510.39 444.93 525.42
  C 431.54 540.20 416.08 553.14 396.59 560.60
  C 381.70 566.30 367.40 569.93 351.80 569.98
  Q 349.04 564.73 349.15 560.25
  Q 349.19 558.53 350.45 548.62
  C 351.45 540.72 351.89 530.94 353.43 523.60
  Q 355.01 516.11 359.69 500.12
  Q 363.39 487.52 368.46 476.75
  Q 378.30 455.83 392.00 436.92
  Z"/>
<path fill="#0D7377" d="
  M 648.57 440.98
  Q 649.99 458.16 646.95 474.48
  C 645.45 482.58 643.44 491.73 640.86 499.72
  Q 623.71 552.77 584.21 592.71
  Q 568.22 579.76 554.42 564.17
  A 0.53 0.53 0.0 0 0 553.68 564.11
  L 548.48 568.37
  A 0.81 0.79 -49.4 0 1 547.58 568.45
  Q 525.86 556.48 505.67 541.88
  Q 543.00 514.19 569.61 476.20
  L 604.82 495.42
  A 0.49 0.49 0.0 0 0 605.48 495.24
  Q 611.77 484.56 615.55 474.58
  Q 620.90 460.45 624.39 444.37
  A 0.58 0.58 0.0 0 1 625.00 443.92
  C 633.42 444.67 640.87 445.02 648.57 440.98
  Z"/>
<path fill="#0D7377" d="
  M 695.63 500.31
  Q 704.78 503.72 714.90 503.19
  Q 710.89 531.48 699.88 557.59
  Q 679.50 605.91 640.13 640.76
  Q 633.23 634.05 628.53 625.75
  Q 646.86 609.06 662.30 586.55
  Q 681.98 557.85 691.16 522.46
  Q 694.57 509.32 695.63 500.31
  Z"/>
<path fill="#0D7377" d="
  M 505.67 541.88
  Q 525.86 556.48 547.58 568.45
  A 0.81 0.79 -49.4 0 0 548.48 568.37
  L 553.68 564.11
  A 0.53 0.53 0.0 0 1 554.42 564.17
  Q 568.22 579.76 584.21 592.71
  Q 575.44 601.44 569.75 606.50
  Q 551.70 622.56 529.42 635.88
  Q 518.06 616.86 500.20 604.28
  A 0.97 0.96 -39.9 0 0 499.25 604.20
  L 485.08 610.66
  A 0.84 0.82 -36.1 0 1 484.18 610.53
  C 468.28 596.63 458.66 587.83 447.93 576.27
  Q 466.45 567.89 481.15 558.66
  Q 491.10 552.40 505.67 541.88
  Z"/>
<path fill="#0D7377" d="
  M 447.93 576.27
  C 458.66 587.83 468.28 596.63 484.18 610.53
  A 0.84 0.82 -36.1 0 0 485.08 610.66
  L 499.25 604.20
  A 0.97 0.96 -39.9 0 1 500.20 604.28
  Q 518.06 616.86 529.42 635.88
  Q 525.68 638.05 521.60 640.30
  Q 488.24 658.65 451.80 666.30
  C 427.22 671.46 400.93 670.96 377.07 662.68
  C 353.73 654.59 333.85 640.66 316.56 621.88
  Q 290.24 593.29 275.46 556.11
  A 0.38 0.38 0.0 0 1 276.11 555.73
  C 293.46 576.65 319.30 589.29 346.02 593.07
  C 380.20 597.90 415.79 591.30 447.93 576.27
  Z"/>
<path fill="#0D7377" d="
  M 628.53 625.75
  Q 633.23 634.05 640.13 640.76
  C 611.55 666.10 576.40 684.38 538.73 691.94
  C 526.64 694.37 513.91 696.45 500.92 696.93
  Q 462.79 698.31 428.91 689.33
  Q 419.72 686.89 413.12 683.97
  A 0.22 0.22 0.0 0 1 413.21 683.55
  C 431.38 683.96 449.58 682.30 467.01 677.25
  C 468.32 676.87 470.42 676.88 472.01 677.03
  Q 535.48 682.95 589.74 653.00
  Q 609.54 642.07 628.53 625.75
  Z"/>
</svg>
