<svg xmlns="http://www.w3.org/2000/svg" width="500" height="308" viewBox="2966 134 500 308">
  <path fill-rule="nonzero" fill="rgb(0%, 0%, 0%)" fill-opacity="1" d="M 3072 139.5 C 3070.808594 139.5 3069.660156 139.96875 3068.820312 140.820312 C 3067.96875 141.660156 3067.5 142.808594 3067.5 144 L 3067.5 258.589844 C 3058.058594 244.660156 3042.101562 235.5 3024 235.5 C 2995 235.5 2971.5 259 2971.5 288 C 2971.5 317 2995 340.5 3024 340.5 C 3042.101562 340.5 3058.058594 331.339844 3067.5 317.410156 L 3067.5 432 C 3067.5 433.191406 3067.96875 434.339844 3068.820312 435.179688 C 3069.660156 436.03125 3070.808594 436.5 3072 436.5 L 3187.949219 436.5 C 3187.949219 436.5 3187.960938 436.5 3187.96875 436.5 L 3196.058594 436.5 C 3196.308594 436.5 3196.5 436.300781 3196.5 436.058594 L 3196.5 423.171875 C 3196.5 423 3196.410156 422.851562 3196.261719 422.769531 C 3193.390625 421.308594 3190.699219 419.53125 3188.230469 417.480469 C 3188.21875 417.480469 3188.21875 417.46875 3188.210938 417.460938 C 3178.609375 409.480469 3172.5 397.460938 3172.5 384 C 3172.5 359.980469 3191.980469 340.5 3216 340.5 C 3240.019531 340.5 3259.5 359.980469 3259.5 384 C 3259.5 397.460938 3253.378906 409.5 3243.769531 417.480469 C 3241.308594 419.53125 3238.621094 421.308594 3235.738281 422.769531 C 3235.589844 422.851562 3235.5 423 3235.5 423.171875 L 3235.5 436.058594 C 3235.5 436.300781 3235.699219 436.5 3235.949219 436.5 L 3244.039062 436.5 C 3244.039062 436.5 3244.050781 436.5 3244.058594 436.5 L 3360 436.5 C 3362.488281 436.5 3364.5 434.480469 3364.5 432 L 3364.5 317.410156 C 3373.941406 331.339844 3389.898438 340.5 3408 340.5 C 3437 340.5 3460.5 317 3460.5 288 C 3460.5 259 3437 235.5 3408 235.5 C 3389.898438 235.5 3373.941406 244.660156 3364.5 258.589844 L 3364.5 144 C 3364.5 141.519531 3362.488281 139.5 3360 139.5 L 3244.078125 139.5 C 3244.070312 139.5 3244.058594 139.5 3244.058594 139.5 L 3235.949219 139.5 C 3235.699219 139.5 3235.5 139.699219 3235.5 139.941406 L 3235.5 152.839844 C 3235.5 153 3235.589844 153.160156 3235.738281 153.230469 C 3238.621094 154.699219 3241.308594 156.480469 3243.769531 158.519531 C 3253.378906 166.5 3259.5 178.53125 3259.5 192 C 3259.5 216.019531 3240.019531 235.5 3216 235.5 C 3191.980469 235.5 3172.5 216.019531 3172.5 192 C 3172.5 178.539062 3178.609375 166.519531 3188.210938 158.53125 C 3188.21875 158.53125 3188.21875 158.53125 3188.230469 158.519531 C 3190.691406 156.480469 3193.378906 154.699219 3196.261719 153.230469 C 3196.410156 153.160156 3196.5 153 3196.5 152.839844 L 3196.5 139.941406 C 3196.5 139.699219 3196.300781 139.5 3196.058594 139.5 Z M 3076.5 148.5 L 3186.601562 148.5 C 3172.660156 157.941406 3163.5 173.898438 3163.5 192 C 3163.5 221 3187 244.5 3216 244.5 C 3245 244.5 3268.5 221 3268.5 192 C 3268.5 173.898438 3259.339844 157.941406 3245.410156 148.5 L 3355.5 148.5 L 3355.5 268.058594 C 3355.5 268.300781 3355.699219 268.5 3355.941406 268.5 L 3368.828125 268.5 C 3369 268.5 3369.148438 268.410156 3369.230469 268.261719 C 3370.691406 265.398438 3372.460938 262.71875 3374.488281 260.269531 L 3374.480469 260.269531 C 3374.5 260.25 3374.511719 260.238281 3374.519531 260.230469 C 3382.5 250.621094 3394.53125 244.5 3408 244.5 C 3432.019531 244.5 3451.5 263.980469 3451.5 288 C 3451.5 312.019531 3432.019531 331.5 3408 331.5 C 3394.53125 331.5 3382.5 325.378906 3374.519531 315.769531 C 3372.480469 313.308594 3370.691406 310.621094 3369.230469 307.738281 C 3369.148438 307.589844 3369 307.5 3368.828125 307.5 L 3355.941406 307.5 C 3355.828125 307.5 3355.71875 307.550781 3355.628906 307.628906 C 3355.550781 307.710938 3355.5 307.820312 3355.5 307.941406 L 3355.5 427.5 L 3245.410156 427.5 C 3259.339844 418.058594 3268.5 402.101562 3268.5 384 C 3268.5 355 3245 331.5 3216 331.5 C 3187 331.5 3163.5 355 3163.5 384 C 3163.5 402.101562 3172.660156 418.058594 3186.589844 427.5 L 3076.5 427.5 L 3076.5 307.941406 C 3076.5 307.699219 3076.308594 307.5 3076.058594 307.5 L 3063.171875 307.5 C 3063 307.5 3062.851562 307.589844 3062.769531 307.738281 C 3061.308594 310.621094 3059.53125 313.308594 3057.480469 315.769531 C 3049.5 325.378906 3037.46875 331.5 3024 331.5 C 2999.980469 331.5 2980.5 312.019531 2980.5 288 C 2980.5 263.980469 2999.980469 244.5 3024 244.5 C 3037.46875 244.5 3049.5 250.621094 3057.480469 260.230469 C 3059.53125 262.691406 3061.308594 265.378906 3062.769531 268.261719 C 3062.851562 268.410156 3063 268.5 3063.171875 268.5 L 3076.058594 268.5 C 3076.308594 268.5 3076.5 268.300781 3076.5 268.058594 Z M 3076.5 148.5 "/>
</svg>