<svg xmlns="http://www.w3.org/2000/svg" width="308" height="500" viewBox="1406 38 308 500">
  <path fill-rule="nonzero" fill="rgb(0%, 0%, 0%)" fill-opacity="1" d="M 1560 43.5 C 1531 43.5 1507.5 67 1507.5 96 C 1507.5 114.101562 1516.660156 130.058594 1530.589844 139.5 L 1416 139.5 C 1414.808594 139.5 1413.660156 139.96875 1412.820312 140.820312 C 1411.96875 141.660156 1411.5 142.808594 1411.5 144 L 1411.5 432 C 1411.5 433.191406 1411.96875 434.339844 1412.820312 435.179688 C 1413.660156 436.03125 1414.808594 436.5 1416 436.5 L 1530.601562 436.5 C 1516.660156 445.941406 1507.5 461.898438 1507.5 480 C 1507.5 508.996094 1531 532.5 1560 532.5 C 1589 532.5 1612.5 508.996094 1612.5 480 C 1612.5 461.898438 1603.339844 445.941406 1589.410156 436.5 L 1704 436.5 C 1706.488281 436.5 1708.5 434.480469 1708.5 432 L 1708.5 307.941406 C 1708.5 307.699219 1708.300781 307.5 1708.058594 307.5 L 1695.171875 307.5 C 1695 307.5 1694.851562 307.589844 1694.769531 307.738281 C 1693.308594 310.621094 1691.53125 313.308594 1689.480469 315.769531 C 1681.5 325.378906 1669.46875 331.5 1656 331.5 C 1631.980469 331.5 1612.5 312.019531 1612.5 288 C 1612.5 263.980469 1631.980469 244.5 1656 244.5 C 1669.46875 244.5 1681.5 250.621094 1689.480469 260.230469 C 1691.53125 262.691406 1693.308594 265.378906 1694.769531 268.261719 C 1694.851562 268.410156 1695 268.5 1695.171875 268.5 L 1708.058594 268.5 C 1708.300781 268.5 1708.5 268.300781 1708.5 268.058594 L 1708.5 259.980469 C 1708.5 259.960938 1708.5 259.949219 1708.5 259.941406 L 1708.5 144 C 1708.5 141.519531 1706.488281 139.5 1704 139.5 L 1589.410156 139.5 C 1603.339844 130.058594 1612.5 114.101562 1612.5 96 C 1612.5 67 1589 43.5 1560 43.5 Z M 1560 52.5 C 1584.019531 52.5 1603.5 71.980469 1603.5 96 C 1603.5 109.460938 1597.378906 121.5 1587.769531 129.480469 C 1585.308594 131.53125 1582.609375 133.308594 1579.738281 134.769531 C 1579.589844 134.851562 1579.5 135 1579.5 135.171875 L 1579.5 148.058594 C 1579.5 148.300781 1579.699219 148.5 1579.941406 148.5 L 1699.5 148.5 L 1699.5 258.589844 C 1690.058594 244.660156 1674.101562 235.5 1656 235.5 C 1627 235.5 1603.5 259 1603.5 288 C 1603.5 317 1627 340.5 1656 340.5 C 1674.101562 340.5 1690.058594 331.339844 1699.5 317.410156 L 1699.5 427.5 L 1588.070312 427.5 C 1588.070312 427.5 1588.058594 427.5 1588.058594 427.5 L 1579.941406 427.5 C 1579.699219 427.5 1579.5 427.699219 1579.5 427.941406 L 1579.5 440.828125 C 1579.5 441 1579.589844 441.148438 1579.738281 441.230469 C 1582.621094 442.691406 1585.308594 444.480469 1587.769531 446.519531 C 1597.378906 454.5 1603.5 466.53125 1603.5 480 C 1603.5 504.023438 1584.019531 523.5 1560 523.5 C 1535.980469 523.5 1516.5 504.023438 1516.5 480 C 1516.5 466.550781 1522.609375 454.519531 1532.199219 446.539062 L 1532.191406 446.539062 C 1532.210938 446.53125 1532.21875 446.53125 1532.230469 446.519531 C 1534.691406 444.480469 1537.378906 442.691406 1540.261719 441.230469 C 1540.410156 441.148438 1540.5 441 1540.5 440.828125 L 1540.5 427.941406 C 1540.5 427.699219 1540.300781 427.5 1540.058594 427.5 L 1531.941406 427.5 C 1531.941406 427.5 1531.929688 427.5 1531.929688 427.5 L 1420.5 427.5 L 1420.5 148.5 L 1531.941406 148.5 C 1531.949219 148.5 1531.949219 148.5 1531.960938 148.5 L 1540.058594 148.5 C 1540.300781 148.5 1540.5 148.300781 1540.5 148.058594 L 1540.5 135.171875 C 1540.5 135 1540.410156 134.851562 1540.261719 134.769531 C 1537.390625 133.308594 1534.691406 131.53125 1532.230469 129.480469 L 1532.21875 129.480469 C 1522.621094 121.5 1516.5 109.460938 1516.5 96 C 1516.5 71.980469 1535.980469 52.5 1560 52.5 Z M 1560 52.5 "/>
</svg>