<svg xmlns="http://www.w3.org/2000/svg" width="308" height="500" viewBox="1766 38 308 500">
  <path fill-rule="nonzero" fill="rgb(0%, 0%, 0%)" fill-opacity="1" d="M 1920 43.5 C 1891 43.5 1867.5 67 1867.5 96 C 1867.5 114.101562 1876.660156 130.058594 1890.589844 139.5 L 1776 139.5 C 1774.808594 139.5 1773.660156 139.96875 1772.820312 140.820312 C 1771.96875 141.660156 1771.5 142.808594 1771.5 144 L 1771.5 268.058594 C 1771.5 268.300781 1771.699219 268.5 1771.941406 268.5 L 1784.828125 268.5 C 1785 268.5 1785.148438 268.410156 1785.230469 268.261719 C 1786.691406 265.390625 1788.46875 262.710938 1790.5 260.25 C 1790.511719 260.238281 1790.519531 260.230469 1790.519531 260.230469 C 1798.5 250.621094 1810.539062 244.5 1824 244.5 C 1848.019531 244.5 1867.5 263.980469 1867.5 288 C 1867.5 312.019531 1848.019531 331.5 1824 331.5 C 1810.539062 331.5 1798.5 325.378906 1790.519531 315.769531 C 1788.480469 313.308594 1786.691406 310.621094 1785.230469 307.738281 C 1785.148438 307.589844 1785 307.5 1784.828125 307.5 L 1771.941406 307.5 C 1771.828125 307.5 1771.71875 307.550781 1771.628906 307.628906 C 1771.550781 307.710938 1771.5 307.820312 1771.5 307.941406 L 1771.5 432 C 1771.5 433.191406 1771.96875 434.339844 1772.820312 435.179688 C 1773.660156 436.03125 1774.808594 436.5 1776 436.5 L 1890.601562 436.5 C 1876.660156 445.941406 1867.5 461.898438 1867.5 480 C 1867.5 508.996094 1891 532.5 1920 532.5 C 1949 532.5 1972.5 508.996094 1972.5 480 C 1972.5 461.898438 1963.339844 445.941406 1949.410156 436.5 L 2064 436.5 C 2066.488281 436.5 2068.5 434.480469 2068.5 432 L 2068.5 307.941406 C 2068.5 307.699219 2068.300781 307.5 2068.058594 307.5 L 2055.171875 307.5 C 2055 307.5 2054.851562 307.589844 2054.769531 307.738281 C 2053.308594 310.621094 2051.53125 313.308594 2049.480469 315.769531 C 2041.5 325.378906 2029.46875 331.5 2016 331.5 C 1991.980469 331.5 1972.5 312.019531 1972.5 288 C 1972.5 263.980469 1991.980469 244.5 2016 244.5 C 2029.46875 244.5 2041.5 250.621094 2049.480469 260.230469 C 2051.53125 262.691406 2053.308594 265.378906 2054.769531 268.261719 C 2054.851562 268.410156 2055 268.5 2055.171875 268.5 L 2068.058594 268.5 C 2068.300781 268.5 2068.5 268.300781 2068.5 268.058594 L 2068.5 260 C 2068.5 259.980469 2068.5 259.960938 2068.5 259.941406 L 2068.5 144 C 2068.5 141.519531 2066.488281 139.5 2064 139.5 L 1949.410156 139.5 C 1963.339844 130.058594 1972.5 114.101562 1972.5 96 C 1972.5 67 1949 43.5 1920 43.5 Z M 1920 52.5 C 1944.019531 52.5 1963.5 71.980469 1963.5 96 C 1963.5 109.460938 1957.378906 121.5 1947.769531 129.480469 C 1945.308594 131.53125 1942.609375 133.308594 1939.738281 134.769531 C 1939.589844 134.851562 1939.5 135 1939.5 135.171875 L 1939.5 148.058594 C 1939.5 148.300781 1939.699219 148.5 1939.941406 148.5 L 1948.050781 148.5 C 1948.050781 148.5 1948.058594 148.5 1948.058594 148.5 L 2059.5 148.5 L 2059.5 258.589844 C 2050.058594 244.660156 2034.101562 235.5 2016 235.5 C 1987 235.5 1963.5 259 1963.5 288 C 1963.5 317 1987 340.5 2016 340.5 C 2034.101562 340.5 2050.058594 331.339844 2059.5 317.410156 L 2059.5 427.5 L 1948.070312 427.5 C 1948.070312 427.5 1948.058594 427.5 1948.058594 427.5 L 1939.941406 427.5 C 1939.699219 427.5 1939.5 427.699219 1939.5 427.941406 L 1939.5 440.828125 C 1939.5 441 1939.589844 441.148438 1939.738281 441.230469 C 1942.621094 442.691406 1945.308594 444.480469 1947.769531 446.519531 C 1957.378906 454.5 1963.5 466.53125 1963.5 480 C 1963.5 504.023438 1944.019531 523.5 1920 523.5 C 1895.980469 523.5 1876.5 504.023438 1876.5 480 C 1876.5 466.539062 1882.609375 454.519531 1892.210938 446.53125 C 1892.21875 446.53125 1892.21875 446.519531 1892.230469 446.519531 C 1894.691406 444.480469 1897.378906 442.691406 1900.261719 441.230469 C 1900.410156 441.148438 1900.5 441 1900.5 440.828125 L 1900.5 427.941406 C 1900.5 427.699219 1900.300781 427.5 1900.058594 427.5 L 1891.941406 427.5 C 1891.941406 427.5 1891.929688 427.5 1891.929688 427.5 L 1780.5 427.5 L 1780.5 317.410156 C 1789.941406 331.339844 1805.898438 340.5 1824 340.5 C 1853 340.5 1876.5 317 1876.5 288 C 1876.5 259 1853 235.5 1824 235.5 C 1805.898438 235.5 1789.941406 244.660156 1780.5 258.589844 L 1780.5 148.5 L 1891.941406 148.5 C 1891.949219 148.5 1891.960938 148.5 1891.960938 148.5 L 1900.058594 148.5 C 1900.308594 148.5 1900.5 148.300781 1900.5 148.058594 L 1900.5 135.171875 C 1900.5 135 1900.410156 134.851562 1900.261719 134.769531 C 1897.390625 133.308594 1894.691406 131.53125 1892.230469 129.480469 C 1892.21875 129.480469 1892.21875 129.46875 1892.210938 129.460938 C 1882.609375 121.480469 1876.5 109.460938 1876.5 96 C 1876.5 71.980469 1895.980469 52.5 1920 52.5 Z M 1920 52.5 "/>
</svg>