<svg xmlns="http://www.w3.org/2000/svg" width="308" height="308" viewBox="686 566 308 308">
  <path fill-rule="nonzero" fill="rgb(0%, 0%, 0%)" fill-opacity="1" d="M 696 571.5 C 694.808594 571.5 693.660156 571.972656 692.816406 572.816406 C 691.972656 573.660156 691.5 574.804688 691.5 576 L 691.5 864 C 691.5 865.195312 691.972656 866.339844 692.816406 867.183594 C 693.660156 868.027344 694.808594 868.5 696 868.5 L 811.945312 868.5 C 811.953125 868.5 811.960938 868.5 811.964844 868.5 L 820.058594 868.5 C 820.300781 868.5 820.5 868.300781 820.5 868.054688 L 820.5 855.167969 C 820.5 855 820.40625 854.847656 820.257812 854.773438 C 817.386719 853.304688 814.691406 851.527344 812.230469 849.484375 L 812.226562 849.484375 C 802.621094 841.503906 796.5 829.464844 796.5 816 C 796.5 791.976562 815.976562 772.5 840 772.5 C 864.023438 772.5 883.5 791.976562 883.5 816 C 883.5 829.464844 877.378906 841.503906 867.769531 849.484375 C 865.308594 851.527344 862.613281 853.304688 859.738281 854.773438 C 859.589844 854.847656 859.496094 855.003906 859.496094 855.167969 L 859.5 864.097656 L 859.5 868.054688 C 859.5 868.300781 859.699219 868.5 859.945312 868.5 L 868.042969 868.5 C 868.046875 868.5 868.050781 868.5 868.058594 868.5 L 984 868.5 C 986.488281 868.5 988.5 866.484375 988.5 864 L 988.5 576 C 988.5 573.515625 986.488281 571.5 984 571.5 L 868.078125 571.5 C 868.070312 571.5 868.0625 571.5 868.058594 571.5 L 859.945312 571.5 C 859.699219 571.5 859.5 571.699219 859.5 571.941406 L 859.5 584.832031 C 859.5 585 859.59375 585.152344 859.742188 585.230469 C 862.621094 586.695312 865.3125 588.476562 867.773438 590.519531 C 877.382812 598.5 883.5 610.535156 883.5 624 C 883.5 648.023438 864.023438 667.5 840 667.5 C 815.976562 667.5 796.5 648.023438 796.5 624 C 796.5 610.558594 802.597656 598.539062 812.179688 590.5625 L 812.167969 590.5625 C 812.1875 590.550781 812.210938 590.535156 812.226562 590.519531 C 814.691406 588.476562 817.378906 586.695312 820.253906 585.230469 C 820.40625 585.152344 820.5 585 820.5 584.832031 L 820.5 571.941406 C 820.5 571.699219 820.300781 571.5 820.054688 571.5 L 811.945312 571.5 C 811.9375 571.5 811.933594 571.5 811.925781 571.5 Z M 700.5 580.5 L 810.605469 580.5 L 810.597656 580.5 C 796.660156 589.941406 787.5 605.898438 787.5 624 C 787.5 652.996094 811.003906 676.5 840 676.5 C 868.996094 676.5 892.5 652.996094 892.5 624 C 892.5 605.898438 883.34375 589.941406 869.40625 580.5 L 979.5 580.5 L 979.5 859.5 L 869.40625 859.5 C 883.339844 850.0625 892.5 834.097656 892.5 816 C 892.5 787.003906 868.996094 763.5 840 763.5 C 811.003906 763.5 787.5 787.003906 787.5 816 C 787.5 834.101562 796.660156 850.0625 810.59375 859.5 L 700.5 859.5 Z M 700.5 580.5 "/>
</svg>